<svg width="32" height="32" viewBox="0 0 32 32" xmlns="http://www.w3.org/2000/svg">
  <!-- Cat face background -->
  <circle cx="16" cy="16" r="14" fill="#ff9500" stroke="#e67e22" stroke-width="2"/>
  
  <!-- Cat ears -->
  <polygon points="8,8 12,4 16,8" fill="#ff9500" stroke="#e67e22" stroke-width="1"/>
  <polygon points="16,8 20,4 24,8" fill="#ff9500" stroke="#e67e22" stroke-width="1"/>
  
  <!-- Inner ears -->
  <polygon points="10,8 12,6 14,8" fill="#ff6b35"/>
  <polygon points="18,8 20,6 22,8" fill="#ff6b35"/>
  
  <!-- Cat eyes -->
  <ellipse cx="12" cy="14" rx="2" ry="3" fill="#2c3e50"/>
  <ellipse cx="20" cy="14" rx="2" ry="3" fill="#2c3e50"/>
  
  <!-- Eye highlights -->
  <circle cx="12.5" cy="13" r="0.5" fill="#ecf0f1"/>
  <circle cx="20.5" cy="13" r="0.5" fill="#ecf0f1"/>
  
  <!-- Cat nose -->
  <polygon points="16,18 15,20 17,20" fill="#e74c3c"/>
  
  <!-- Cat mouth -->
  <path d="M 16 20 Q 14 22 12 21" stroke="#2c3e50" stroke-width="1.5" fill="none"/>
  <path d="M 16 20 Q 18 22 20 21" stroke="#2c3e50" stroke-width="1.5" fill="none"/>
  
  <!-- Whiskers -->
  <line x1="6" y1="16" x2="10" y2="17" stroke="#2c3e50" stroke-width="1"/>
  <line x1="6" y1="18" x2="10" y2="18" stroke="#2c3e50" stroke-width="1"/>
  <line x1="22" y1="17" x2="26" y2="16" stroke="#2c3e50" stroke-width="1"/>
  <line x1="22" y1="18" x2="26" y2="18" stroke="#2c3e50" stroke-width="1"/>
</svg>
